<?xml version="1.0" encoding="utf-8"?>
<svg
		version="1.1"
		xmlns="http://www.w3.org/2000/svg"
		xmlns:xlink="http://www.w3.org/1999/xlink"
		x="0px"
		y="0px"
		width="192px"
		height="144px"
		viewBox="0 0 192 144"
		style="enable-background:new 0 0 192 144;"
		xml:space="preserve"
>
<style type="text/css">
	.st0{fill:url(#SVGID_1_);}
	.st1{fill:url(#SVGID_2_);}
</style>
<g>
	
		<radialGradient id="SVGID_1_" cx="106.4728" cy="74.1925" r="55.5275" gradientTransform="matrix(1 0 0 0.9099 0 6.6829)" gradientUnits="userSpaceOnUse">
		<stop  offset="0" style="stop-color:#6DFF6B"/>
		<stop  offset="1" style="stop-color:#059E40"/>
	</radialGradient>
	<path class="st0" d="M142.68,60.89c1.5,4.09,2.32,8.5,2.32,13.11c0,20.99-17.01,38-38,38S69,94.99,69,74
		c0-2.85,0.32-5.62,0.92-8.29L59.38,50.72C55.94,57.75,54,65.65,54,74c0,29.27,23.73,52.79,53,53C135.91,127.2,169,96,142.68,60.89z
		"/>
</g>
<g>
	
		<radialGradient id="SVGID_2_" cx="62.9798" cy="33.4211" r="41.5821" gradientTransform="matrix(0.5204 0.8539 -0.6033 0.3676 50.3687 -32.6465)" gradientUnits="userSpaceOnUse">
		<stop  offset="0" style="stop-color:#6DFF6B"/>
		<stop  offset="1" style="stop-color:#059E40"/>
	</radialGradient>
	<path class="st1" d="M57.73,33.7c-4.78,8.42-12.85,22.54-16.47,28.4C37,69,40,71,46,71.22c7.33,0.27,22.01,0.29,29.33,0
		C81,71,87,71,81.79,62.2c-3.6-6.08-12.01-20.71-16.8-29.06C62.9,29.5,59.98,29.75,57.73,33.7z"/>
</g>
</svg>
